<svg xmlns="http://www.w3.org/2000/svg" viewBox="0 0 400 400">
  <rect width="400" height="400" fill="#fffbeb" rx="20"/>
  <defs>
    <linearGradient id="oilb" x1="0%" y1="0%" x2="100%" y2="0%">
      <stop offset="0%" stop-color="#fef9c3"/>
      <stop offset="100%" stop-color="#fde68a"/>
    </linearGradient>
    <linearGradient id="oilf" x1="0%" y1="0%" x2="0%" y2="100%">
      <stop offset="0%" stop-color="#fef08a"/>
      <stop offset="100%" stop-color="#ca8a04"/>
    </linearGradient>
    <linearGradient id="oilcap" x1="0%" y1="0%" x2="0%" y2="100%">
      <stop offset="0%" stop-color="#9ca3af"/>
      <stop offset="100%" stop-color="#4b5563"/>
    </linearGradient>
  </defs>
  <!-- Shadow -->
  <ellipse cx="200" cy="350" rx="72" ry="14" fill="#00000015"/>
  <!-- Bottle body -->
  <path d="M135 195 Q130 210 128 258 Q126 310 130 336 Q138 352 200 354 Q262 352 270 336 Q274 310 272 258 Q270 210 265 195 Z" fill="url(#oilb)" stroke="#ca8a04" stroke-width="2.5"/>
  <!-- Shoulder -->
  <path d="M148 162 Q135 178 135 195 L265 195 Q265 178 252 162 Z" fill="#fef3c7" stroke="#ca8a04" stroke-width="2"/>
  <!-- Neck -->
  <rect x="170" y="112" width="60" height="52" rx="10" fill="#fde68a" stroke="#ca8a04" stroke-width="2"/>
  <!-- Cap -->
  <rect x="174" y="90" width="52" height="26" rx="8" fill="url(#oilcap)"/>
  <!-- Oil level inside -->
  <path d="M130 248 Q130 310 130 336 Q138 352 200 354 Q262 352 270 336 Q270 310 270 248 Z" fill="#fbbf24" opacity="0.45"/>
  <!-- Oil surface wave -->
  <path d="M130 248 Q162 238 200 242 Q238 238 270 248" fill="none" stroke="#d97706" stroke-width="2.5" opacity="0.55"/>
  <!-- Label -->
  <rect x="142" y="205" width="116" height="100" rx="6" fill="white" opacity="0.6"/>
  <!-- Mustard flower icon -->
  <circle cx="200" cy="238" r="14" fill="#fde047"/>
  <circle cx="200" cy="220" r="7" fill="#fde047"/>
  <circle cx="200" cy="256" r="7" fill="#fde047"/>
  <circle cx="182" cy="238" r="7" fill="#fde047"/>
  <circle cx="218" cy="238" r="7" fill="#fde047"/>
  <circle cx="200" cy="238" r="8" fill="#ca8a04"/>
  <rect x="150" y="266" width="100" height="8" rx="4" fill="#ca8a04" opacity="0.55"/>
  <rect x="158" y="280" width="84" height="7" rx="3.5" fill="#ca8a04" opacity="0.4"/>
  <rect x="163" y="292" width="74" height="7" rx="3.5" fill="#ca8a04" opacity="0.35"/>
  <!-- Bottle shine -->
  <rect x="134" y="202" width="12" height="110" rx="6" fill="white" opacity="0.22"/>
</svg>
